<?xml version="1.0" standalone="no"?>
<!DOCTYPE svg PUBLIC "-//W3C//DTD SVG 20010904//EN"
 "http://www.w3.org/TR/2001/REC-SVG-20010904/DTD/svg10.dtd">
<svg version="1.0" xmlns="http://www.w3.org/2000/svg"
 width="1280.000000pt" height="1280.000000pt" viewBox="0 0 785.000000 1280.000000"
 preserveAspectRatio="xMidYMid meet">
<metadata>
Created by potrace 1.15, written by Peter Selinger 2001-2017
</metadata>
<g transform="translate(0.000000,1280.000000) scale(0.100000,-0.100000)"
fill="#000000" stroke="none">
<path d="M399 12776 c-32 -22 -65 -79 -92 -157 -4 -13 -15 -16 -51 -12 -82 10
-168 -63 -196 -166 -12 -46 -6 -95 21 -158 l18 -43 -45 -42 c-54 -52 -65 -96
-40 -162 16 -41 77 -108 207 -225 40 -35 48 -50 58 -99 16 -82 55 -142 176
-272 142 -153 147 -163 155 -327 l6 -131 51 -104 51 -105 6 -184 c29 -778 169
-1458 439 -2120 56 -137 172 -390 212 -463 12 -23 78 -147 145 -276 241 -462
397 -727 468 -795 29 -28 31 -34 22 -65 -16 -59 -58 -318 -75 -460 -23 -190
-30 -543 -16 -725 22 -264 73 -513 147 -712 64 -174 254 -545 324 -634 l28
-35 -15 -120 c-12 -96 -13 -166 -7 -359 5 -132 8 -310 8 -395 0 -153 -1 -158
-57 -390 -190 -800 -317 -1713 -317 -2291 l0 -136 -42 -12 c-119 -35 -252
-141 -304 -242 -35 -69 -38 -154 -7 -214 26 -51 112 -132 149 -141 16 -4 53
-1 84 6 60 14 63 14 160 4 46 -4 75 -2 100 8 29 12 40 12 75 0 147 -51 348 65
441 254 l39 78 -3 229 c-3 251 1 286 64 572 19 88 37 166 40 173 3 10 15 5 41
-18 44 -39 99 -63 220 -97 79 -22 91 -28 77 -38 -23 -17 -13 -29 43 -50 88
-33 249 -119 231 -123 -27 -5 -22 -17 15 -34 18 -9 78 -53 133 -98 54 -45 105
-85 112 -87 34 -14 2 -23 -81 -23 -130 0 -200 -15 -291 -63 -123 -66 -191
-149 -211 -258 -16 -85 55 -197 139 -220 46 -13 147 -6 217 13 29 9 96 12 196
10 l152 -3 19 -42 c21 -48 74 -104 109 -118 13 -5 67 -9 118 -9 75 0 102 -4
133 -20 68 -35 190 -45 364 -30 108 9 447 15 1148 20 1048 7 1008 6 1307 55
54 9 117 26 140 37 88 41 173 175 278 438 37 91 72 168 78 172 7 4 26 8 42 8
61 1 72 9 95 73 13 34 58 139 101 232 91 199 105 258 95 413 -6 110 -29 234
-76 423 l-30 117 22 78 c32 121 28 173 -31 377 -28 98 -76 253 -106 345 -63
194 -64 196 -337 562 -192 259 -337 463 -414 585 -94 146 -174 324 -174 383 0
14 -23 59 -51 101 -126 186 -271 382 -358 485 -174 204 -704 717 -783 757 -51
26 -181 151 -276 264 -41 50 -118 133 -171 185 -84 83 -99 104 -124 167 -36
91 -59 120 -106 133 -56 15 -86 43 -121 113 -50 103 -63 226 -36 337 24 98
130 343 336 775 155 325 269 621 290 755 13 82 13 380 0 525 -5 61 -14 181
-20 267 -11 152 -10 159 14 250 69 261 66 522 -6 573 -34 23 -98 19 -154 -11
-101 -53 -246 -180 -346 -301 l-26 -32 -61 61 c-43 43 -61 69 -61 87 0 26 -5
54 -55 276 -15 66 -32 176 -40 243 -14 133 -25 160 -64 147 -12 -3 -30 -23
-40 -43 -23 -46 -91 -438 -91 -528 l0 -64 -43 0 c-23 0 -126 7 -227 16 -194
16 -293 13 -394 -13 -79 -19 -117 -40 -217 -116 -171 -129 -198 -138 -407
-130 -129 4 -151 2 -182 -14 -47 -25 -67 -64 -79 -157 -6 -55 -16 -87 -31
-105 -11 -14 -34 -54 -51 -88 -37 -76 -41 -160 -12 -238 17 -44 17 -54 5 -90
-7 -22 -12 -57 -10 -77 2 -21 2 -38 0 -38 -1 0 -30 14 -64 31 -34 17 -132 60
-217 96 -314 131 -365 169 -446 337 -95 197 -152 383 -261 850 -105 453 -141
565 -279 861 -137 294 -167 376 -180 497 -8 73 -28 116 -98 213 -80 109 -86
136 -87 370 0 189 -2 203 -24 251 -13 28 -41 65 -62 82 -44 37 -118 62 -156
55 -21 -4 -27 0 -32 23 -12 47 -68 113 -130 155 -34 22 -74 61 -92 87 -55 82
-112 101 -175 58z"/>
</g>
</svg>
